<svg xmlns="http://www.w3.org/2000/svg" xmlns:xlink="http://www.w3.org/1999/xlink" width="500" height="200" viewBox="0 0 500 200">
  <defs>
    <clipPath id="clip-Kaikas_logo">
      <rect width="500" height="200"/>
    </clipPath>
  </defs>
  <g id="Kaikas_logo" data-name="Kaikas logo" clip-path="url(#clip-Kaikas_logo)">
    <g id="Group_2" data-name="Group 2" transform="translate(-29.795 -212.625)">
      <g id="Group_1" data-name="Group 1" transform="translate(47.795 248.625)">
        <path id="Path_1" data-name="Path 1" d="M129.767,316.662l44.414,44.27a64.613,64.613,0,0,0,0-88.539Z" transform="translate(-61.522 -252.605)" fill="#574a3b"/>
        <path id="Path_2" data-name="Path 2" d="M117.22,329.21,73.384,372.9l43.836,18.054L161.056,372.9Z" transform="translate(-52.08 -262.119)" fill="#574a3b"/>
        <path id="Path_3" data-name="Path 3" d="M116.444,311.093l45.425-45.208-41.814-17.26-41.814,100.6Z" transform="translate(-52.893 -248.625)" fill="#574a3b"/>
        <path id="Path_4" data-name="Path 4" d="M47.795,313.336a64.607,64.607,0,0,0,17.4,44.125l43.619-104.932Z" transform="translate(-47.795 -249.279)" fill="#574a3b"/>
      </g>
      <path id="Path_5" data-name="Path 5" d="M524.515,354.131c-5.395,0-13.339-1.694-16.993-4.767a13.037,13.037,0,0,1-5.509-10.93v-1.629h8.14l.034,1.6c.206,5.465,8.2,8.468,14.208,8.468h.7c5.745,0,11.6-3.224,11.6-7.3,0-4.294-5.054-6.506-12.559-9.059-7.858-2.672-20.069-4.944-19.923-14.177a12.875,12.875,0,0,1,5.725-9.792,26.544,26.544,0,0,1,13.9-4.024c12.78,0,20.279,8.158,20.8,13.959l.042,1.769H536.61l-.078-1.561c-.162-4.145-7.011-7.286-12.491-7.182-7.992.138-11.507,3.435-11.507,6.261,0,3.834,7.078,5.205,14.052,7.58,7.848,2.662,18.447,5.9,18.447,16.394,0,7.807-9.03,14.386-19.355,14.386Zm-79.391-15.093c0-9,6.953-14.217,23.033-14.217h11.422v-3.313c0-7.271-4.528-11.609-12.116-11.609-5.161,0-11.005,3.123-12.751,11.666h-8.137a20.341,20.341,0,0,1,21.1-18.822c12.457,0,20.2,6.875,20.2,17.956v25.045h7.251v7.393h-5.486c-6.433,0-8.927-3.412-9.545-7.961-2.355,5.377-7.607,8.749-16.6,8.749-11.209-.018-18.369-5.715-18.369-14.9Zm8.715-1.137v1.988c0,5.025,4.255,7.677,11.1,7.677,8.5,0,14.628-3.98,14.628-9V330.5H468.158c-9.855,0-14.318,2.652-14.318,7.393Zm-145.092,1.137c0-9,6.951-14.217,23.035-14.217h11.412v-3.313c0-7.271-4.531-11.609-12.117-11.609-5.16,0-11,3.123-12.751,11.666h-8.134a20.341,20.341,0,0,1,21.1-18.822c12.457,0,20.2,6.875,20.2,17.956v25.045h7.251v7.393h-5.489c-6.432,0-8.92-3.409-9.544-7.961-2.355,5.377-7.6,8.749-16.6,8.749-11.216-.018-18.362-5.715-18.362-14.9Zm8.715-1.137v1.991c0,5.023,4.252,7.674,11.1,7.674,8.507,0,14.629-3.98,14.629-9V330.5H331.782c-9.857,0-14.326,2.655-14.326,7.393Zm111.551,15.226L407.75,331.983a6.932,6.932,0,0,1,.559-9.108l20.745-20.131h10.37l-24.964,24.412,25.008,25.973Zm-35.927,0V283.7h8.3v69.423Zm-14.149,0c-6.885,0-11.335-4.929-11.335-12.556V302.742h8.3v42.992h7.252v7.393Zm-128.094,0V283.7h8.3v69.423Zm41.581,0-26.858-34.2a6.942,6.942,0,0,1,.5-9.123l25.692-26.1h10.37l-29.911,30.382,30.66,39.034Zm75.18-55.428v-8.067h8.3V297.7Z" transform="translate(-34.001 -5.874)" fill="#574a3b"/>
    </g>
  </g>
</svg>
